<svg xmlns="http://www.w3.org/2000/svg" xmlns:xlink="http://www.w3.org/1999/xlink" viewBox="0 0 283.76 283.76"><defs><style>.cls-1,.cls-7{fill:none;}.cls-2,.cls-8{fill:#414042;}.cls-2{stroke:#414042;stroke-width:4px;}.cls-2,.cls-7{stroke-miterlimit:10;}.cls-3{fill:#fff;}.cls-4{clip-path:url(#clip-path);}.cls-5{fill:#c02033;}.cls-6{fill:#213064;opacity:0.85;}.cls-7{stroke:#fff;stroke-width:0.5px;}</style><clipPath id="clip-path"><circle class="cls-1" cx="141.88" cy="141.1" r="107.15"/></clipPath></defs><title>dark ring scalable</title><g id="Layer_2" data-name="Layer 2"><g id="Layer_1-2" data-name="Layer 1"><circle class="cls-2" cx="141.88" cy="141.88" r="139.88"/><circle class="cls-3" cx="141.88" cy="140.99" r="108.78"/><g class="cls-4"><rect class="cls-5" x="141.79" y="141.37" width="116.41" height="116.41" transform="translate(399.57 -0.42) rotate(90)"/><rect class="cls-6" x="30.36" y="30.43" width="109.34" height="114.49" transform="translate(172.7 2.65) rotate(90)"/></g><path class="cls-3" d="M37.63,68.91a4.77,4.77,0,0,1,1.67,1.66,4.16,4.16,0,0,1,.54,2,6,6,0,0,1-.35,2.12,10.23,10.23,0,0,1-1,2.11l-1,1.58,5,3.14-2,3.18L27.26,76.33l3.06-4.83a10.79,10.79,0,0,1,1.49-1.88,5.64,5.64,0,0,1,1.72-1.2,3.94,3.94,0,0,1,1.94-.31A4.86,4.86,0,0,1,37.63,68.91Zm-2,3.19a1.68,1.68,0,0,0-.88-.3A1.54,1.54,0,0,0,34,72a2.55,2.55,0,0,0-.68.57,6.93,6.93,0,0,0-.58.79l-.88,1.39,3.1,2,.85-1.34a5.63,5.63,0,0,0,.47-.9,2.75,2.75,0,0,0,.21-.9,1.65,1.65,0,0,0-.17-.82A1.73,1.73,0,0,0,35.63,72.1Z"/><path class="cls-3" d="M55.72,63.73l-3.11-1.06L48.7,67.26l1.59,2.85-2.65,3.12L40,58.15l2.37-2.78,16.05,5.17Zm-11.4-4.22,2.79,5,2.54-3Z"/><path class="cls-3" d="M57.17,45.16l8.25,9.21-2.8,2.51-8.25-9.21L51.09,50.6l-2.14-2.39,9.36-8.38,2.14,2.39Z"/><path class="cls-3" d="M79.1,44.13l-6.25-3.25-1.06.71,3.45,5.13-3,2L63.49,35.85l4.93-3.31a10.27,10.27,0,0,1,1.95-1,5.71,5.71,0,0,1,2-.42,4.09,4.09,0,0,1,1.93.45A4.54,4.54,0,0,1,76,33.12a4.14,4.14,0,0,1,.77,2.69,4.68,4.68,0,0,1-1.12,2.6l7.1,3.27Zm-6.15-8.88a1.56,1.56,0,0,0-.69-.61,1.59,1.59,0,0,0-.79-.11,2.59,2.59,0,0,0-.82.25,5.9,5.9,0,0,0-.76.43l-1.67,1.12,2,3,1.49-1a6,6,0,0,0,.75-.59,3.06,3.06,0,0,0,.58-.72,1.6,1.6,0,0,0-.11-1.78Z"/><path class="cls-3" d="M86.84,39.61,79.7,25.76,83.06,24,90.2,37.87Z"/><path class="cls-3" d="M108.09,22.29a8.7,8.7,0,0,1,.54,3.39,7.7,7.7,0,0,1-.78,3.06,7.87,7.87,0,0,1-2,2.49,9.92,9.92,0,0,1-6.37,2.28,7.91,7.91,0,0,1-3.1-.68A7.68,7.68,0,0,1,93.86,31a9.26,9.26,0,0,1-2.28-6.36,7.38,7.38,0,0,1,.8-3,7.89,7.89,0,0,1,2-2.44,9.69,9.69,0,0,1,3-1.68,9.79,9.79,0,0,1,3.38-.6,7.86,7.86,0,0,1,3.09.62,7.39,7.39,0,0,1,2.53,1.81A8.59,8.59,0,0,1,108.09,22.29Zm-3.79,1.36a5.37,5.37,0,0,0-.95-1.67A4.53,4.53,0,0,0,102,20.87a4.22,4.22,0,0,0-1.66-.46,4.46,4.46,0,0,0-1.83.27A4.33,4.33,0,0,0,95.92,23a4.32,4.32,0,0,0-.35,1.73,5.85,5.85,0,0,0,1.31,3.61,4.58,4.58,0,0,0,1.38,1.13,4.15,4.15,0,0,0,1.65.47,4.66,4.66,0,0,0,3.4-1.22,4.26,4.26,0,0,0,1-1.42,4.51,4.51,0,0,0,.35-1.75A5.57,5.57,0,0,0,104.3,23.65Z"/><path class="cls-3" d="M119.24,15.36l2.38,12.13-3.69.72-2.38-12.13-4.32.85-.62-3.15,12.33-2.42.62,3.15Z"/><path class="cls-3" d="M142,13.31l0,3.21,6,0,0,3.1-6,0,0,6-3.72,0,.11-15.58,10.25.07,0,3.21Z"/><path class="cls-3" d="M153.62,26.23l1.79-15.47,3.76.44-1.79,15.47Z"/><path class="cls-3" d="M171.38,29.38l-1.88-6.79-1.25-.29-1.41,6-3.58-.84,3.56-15.16,5.78,1.36a10.3,10.3,0,0,1,2.08.73,5.67,5.67,0,0,1,1.68,1.2,4.08,4.08,0,0,1,1,1.72,4.53,4.53,0,0,1,0,2.3,4.14,4.14,0,0,1-1.44,2.4,4.67,4.67,0,0,1-2.67,1l2.44,7.42Zm2.32-10.55a1.55,1.55,0,0,0,0-.92,1.59,1.59,0,0,0-.46-.65,2.65,2.65,0,0,0-.74-.43,6.2,6.2,0,0,0-.84-.26l-2-.46-.83,3.53,1.74.41a6.11,6.11,0,0,0,.94.14,3,3,0,0,0,.92-.07,1.6,1.6,0,0,0,1.24-1.29Z"/><path class="cls-3" d="M179.91,31.85l5.64-14.52,9.76,3.79-1.15,3-6.38-2.48-1.07,2.75,6,2.34-1.09,2.81-6-2.34-1.17,3,6.75,2.62-1.16,3Z"/><path class="cls-3" d="M203.87,43.18l.46-3.26-5.24-3L196.59,39,193,37l13.39-10.29,3.17,1.81-2.1,16.73Zm2-12-4.37,3.66,3.4,1.94Z"/><path class="cls-3" d="M217.12,52.79l1.21-6.94-1-.8-3.85,4.84L210.6,47.6l9.7-12.19,4.65,3.7a10.35,10.35,0,0,1,1.57,1.54,5.69,5.69,0,0,1,1,1.8,4.07,4.07,0,0,1,.15,2,4.53,4.53,0,0,1-1,2.07,4.14,4.14,0,0,1-2.33,1.55,4.69,4.69,0,0,1-2.82-.28l-1,7.75Zm6.61-8.55a1.55,1.55,0,0,0,.37-.84,1.58,1.58,0,0,0-.14-.79,2.61,2.61,0,0,0-.48-.71,6,6,0,0,0-.64-.6l-1.57-1.25L219,42.9l1.4,1.11a6,6,0,0,0,.79.53,3,3,0,0,0,.86.34,1.6,1.6,0,0,0,1.67-.64Z"/><path class="cls-3" d="M233.22,69l8.32-7.24,0,0L230.55,66l-1.75-2,5.65-10.25,0,0-8.2,7.37-2.35-2.65,11.67-10.32,3.55,4-5.13,9.27.06.07,9.73-4.07,3.6,4.08L235.66,71.79Z"/><path class="cls-3" d="M253,77.49a3.4,3.4,0,0,0,.16-1.59,3.57,3.57,0,0,0-.49-1.47,4.47,4.47,0,0,0-.46-.61,2,2,0,0,0-.58-.45,1.72,1.72,0,0,0-.68-.18,1.29,1.29,0,0,0-.75.22,1.23,1.23,0,0,0-.47.49,1.45,1.45,0,0,0-.14.65,4.22,4.22,0,0,0,.09.84c.06.31.14.65.23,1q.19.81.38,1.71a6.2,6.2,0,0,1,.11,1.77,4.47,4.47,0,0,1-.49,1.68A3.78,3.78,0,0,1,248.47,83a5.09,5.09,0,0,1-2.23.81,4.62,4.62,0,0,1-2.08-.27,5.68,5.68,0,0,1-1.81-1.12,8.05,8.05,0,0,1-1.44-1.72,9.15,9.15,0,0,1-1.22-3.05,6.83,6.83,0,0,1,0-3.08l3.43.76a4.52,4.52,0,0,0-.2,1.9,4.09,4.09,0,0,0,.58,1.83,3.7,3.7,0,0,0,.51.64,2,2,0,0,0,.61.44,1.43,1.43,0,0,0,.7.12,1.66,1.66,0,0,0,.76-.27,1.25,1.25,0,0,0,.52-.58,2.18,2.18,0,0,0,.15-.83,5.19,5.19,0,0,0-.14-1.1q-.14-.62-.34-1.41a12.94,12.94,0,0,1-.29-1.54A4.9,4.9,0,0,1,246,73a3.94,3.94,0,0,1,.59-1.43A4.25,4.25,0,0,1,248,70.31a4.41,4.41,0,0,1,2.17-.73,4.59,4.59,0,0,1,2,.37,6,6,0,0,1,1.76,1.18,8.8,8.8,0,0,1,1.38,1.7,8.07,8.07,0,0,1,1,2.54,7,7,0,0,1,.06,2.8Z"/><path class="cls-3" d="M25,200.39l-1-1.9L39.08,197l.86,1.56-9.34,12-1.07-1.94,2.32-2.91L28.64,200Zm5.53-.66L33,204.32l4.48-5.45Z"/><path class="cls-3" d="M51,219a3.11,3.11,0,0,0,0-1.46,3.45,3.45,0,0,0-.72-1.48,3.75,3.75,0,0,0-.7-.67,2.63,2.63,0,0,0-.87-.42,2.28,2.28,0,0,0-1-.05,2,2,0,0,0-.95.45,1.85,1.85,0,0,0-.6.78,2.06,2.06,0,0,0-.12.89,3.89,3.89,0,0,0,.22,1q.18.52.4,1.11t.52,1.43a5.15,5.15,0,0,1,.26,1.49,3.59,3.59,0,0,1-.28,1.47,3.55,3.55,0,0,1-1.11,1.38,4.13,4.13,0,0,1-1.72.87,3.86,3.86,0,0,1-1.71,0,4.6,4.6,0,0,1-1.58-.72,6.44,6.44,0,0,1-1.33-1.25,6.61,6.61,0,0,1-1.2-2.31,5.09,5.09,0,0,1-.1-2.55l2,.38a3.72,3.72,0,0,0-.09,1.77,3.68,3.68,0,0,0,.77,1.69,3.64,3.64,0,0,0,.73.68,2.78,2.78,0,0,0,.9.43,2.37,2.37,0,0,0,1,.05,2.12,2.12,0,0,0,1-.47,2,2,0,0,0,.66-.87,2.36,2.36,0,0,0,.11-1,4.79,4.79,0,0,0-.27-1.14q-.22-.6-.47-1.26a10.86,10.86,0,0,1-.45-1.33,4.56,4.56,0,0,1-.16-1.37,3.38,3.38,0,0,1,.33-1.33,3.68,3.68,0,0,1,1.06-1.26,3.59,3.59,0,0,1,1.67-.8,3.88,3.88,0,0,1,1.66.08,4.62,4.62,0,0,1,1.53.75,6.73,6.73,0,0,1,1.26,1.2,6,6,0,0,1,1.1,2.06,4.57,4.57,0,0,1,.17,2.07Z"/><path class="cls-3" d="M47.58,232.39,46,230.88l14.1-5.79,1.27,1.24-5.45,14.21L54.36,239l1.38-3.46L51,230.91Zm5.1-2.24,3.75,3.65,2.71-6.52Z"/><path class="cls-3" d="M70.7,249.11a6.28,6.28,0,0,1-2.82.18,6.72,6.72,0,0,1-3-1.34,7.87,7.87,0,0,1-2-2.2,6.88,6.88,0,0,1-1-2.61,7,7,0,0,1,.17-2.78,8.25,8.25,0,0,1,3.58-4.77,6.78,6.78,0,0,1,2.63-.92,7.11,7.11,0,0,1,2.78.22,8.06,8.06,0,0,1,2.69,1.35,7.7,7.7,0,0,1,1.07,1,7.19,7.19,0,0,1,.88,1.17,5.83,5.83,0,0,1,.57,1.28,4.38,4.38,0,0,1,.2,1.32l-1.94,0a3.86,3.86,0,0,0-.46-1.81,4.5,4.5,0,0,0-1.34-1.58,5.27,5.27,0,0,0-2-1,5,5,0,0,0-2.06,0,5.51,5.51,0,0,0-1.92.79,6.22,6.22,0,0,0-1.59,1.51,6.54,6.54,0,0,0-1,2,5.31,5.31,0,0,0-.23,2.06,4.83,4.83,0,0,0,.61,1.95A5.31,5.31,0,0,0,66,246.56a4.82,4.82,0,0,0,2,.91,4.14,4.14,0,0,0,2.11-.15Z"/><path class="cls-3" d="M75.76,254.68l-1.7-1L81,241.55l3.9,2.21a8.53,8.53,0,0,1,1.56,1.13,4.73,4.73,0,0,1,1.06,1.36,3.24,3.24,0,0,1,.35,1.57,3.8,3.8,0,0,1-.55,1.77,3.36,3.36,0,0,1-2.05,1.7,4.4,4.4,0,0,1-2.72-.16l.23,7.51-2.06-1.17,0-7.17-1.82-1Zm3.88-6.84,2,1.11a6.64,6.64,0,0,0,1.17.53,3.29,3.29,0,0,0,1.09.18,2,2,0,0,0,1-.26,2.31,2.31,0,0,0,1-1.84,2,2,0,0,0-.26-.93,3,3,0,0,0-.69-.81,6.48,6.48,0,0,0-1-.69L81.84,244Z"/><path class="cls-3" d="M88.33,261.31l-2-.83,10.94-10.62,1.64.68.22,15.22-2-.84V261.2l-6.14-2.53Zm3.9-4,4.84,2,.09-7.06Z"/><path class="cls-3" d="M112.18,266.11h0l6.6-9.43,3,.73L118.4,271l-1.9-.47,2.82-11.35h0L112,269.39l-1.21-.3-1.67-12.46h0L106.23,268l-1.84-.46,3.37-13.57,3,.73Z"/><path class="cls-3" d="M127.49,270.49l7.27.76-.18,1.73-9.21-1,1.46-13.91,8.92.94-.18,1.71-7-.73-.44,4.17,6.56.69-.18,1.67-6.56-.69Z"/><path class="cls-3" d="M150.48,270.25h0l-.26-11.18,2,0,.33,14-2.47.06-7.65-11.24h0l.27,11.42-2,0-.33-14,2.55-.06Z"/><path class="cls-3" d="M164,257.55l4.68-1.06a9.44,9.44,0,0,1,2.71-.21A7.24,7.24,0,0,1,174,257a6.39,6.39,0,0,1,2.2,1.73,7,7,0,0,1,1.36,3,6.74,6.74,0,0,1,0,3.18,6.49,6.49,0,0,1-1.23,2.51,7.57,7.57,0,0,1-2.08,1.79,8.86,8.86,0,0,1-2.53,1l-4.68,1.06Zm4.63,11.53,2.39-.54a7.38,7.38,0,0,0,2.2-.87,5.39,5.39,0,0,0,1.58-1.41,4.57,4.57,0,0,0,.82-1.89,5.49,5.49,0,0,0-.07-2.27,5.65,5.65,0,0,0-.93-2.14,4.52,4.52,0,0,0-1.55-1.34,5.38,5.38,0,0,0-2-.57,7.65,7.65,0,0,0-2.36.18l-2.39.54Z"/><path class="cls-3" d="M186.28,264.25l6.86-2.52.6,1.63-8.7,3.19-4.82-13.13,8.42-3.09.59,1.61-6.58,2.42,1.44,3.93,6.19-2.27.58,1.58-6.19,2.28Z"/><path class="cls-3" d="M207.63,256.58l-1.7,1-7-12.13,7.57-4.35.86,1.49-5.88,3.37,2.17,3.77,5.5-3.16L210,248l-5.5,3.16Z"/><path class="cls-3" d="M218.89,247.46l5.9-4.32,1,1.4L218.34,250l-8.26-11.29,7.24-5.3,1,1.39L212.67,239l2.47,3.38,5.33-3.9,1,1.36-5.32,3.9Z"/><path class="cls-3" d="M235.76,231.85l0,0-7.71-8.1,1.42-1.35,9.64,10.13-1.79,1.7L224.13,231l0,0,7.87,8.27-1.42,1.35-9.64-10.13,1.85-1.76Z"/><path class="cls-3" d="M232.92,218.61l3-3.77a9.43,9.43,0,0,1,2-1.87,7.21,7.21,0,0,1,2.48-1.14,6.37,6.37,0,0,1,2.79,0,7,7,0,0,1,2.91,1.44,6.75,6.75,0,0,1,2,2.45,6.48,6.48,0,0,1,.62,2.73,7.54,7.54,0,0,1-.5,2.7,8.87,8.87,0,0,1-1.33,2.37l-3,3.77Zm10.84,6.06,1.52-1.92a7.41,7.41,0,0,0,1.17-2.06,5.43,5.43,0,0,0,.34-2.09,4.59,4.59,0,0,0-.55-2,5.49,5.49,0,0,0-1.48-1.72,5.64,5.64,0,0,0-2.07-1.08,4.51,4.51,0,0,0-2-.07,5.4,5.4,0,0,0-1.94.83A7.63,7.63,0,0,0,237,216.2l-1.52,1.92Z"/><path class="cls-3" d="M256.06,196.51a7.66,7.66,0,0,1,2.3,2,7.06,7.06,0,0,1,1.26,2.5,7,7,0,0,1,.16,2.8,8.32,8.32,0,0,1-2.93,5.14,7,7,0,0,1-2.48,1.28,6.94,6.94,0,0,1-2.79.18,8.32,8.32,0,0,1-5.18-3,6.72,6.72,0,0,1-1.24-2.48,7,7,0,0,1-.13-2.77,8.48,8.48,0,0,1,2.93-5.14,7,7,0,0,1,2.46-1.3,6.86,6.86,0,0,1,2.78-.2A7.71,7.71,0,0,1,256.06,196.51Zm-1,1.84a6.19,6.19,0,0,0-2.06-.75,5.51,5.51,0,0,0-2.08,0,5,5,0,0,0-1.88.85,5.29,5.29,0,0,0-1.48,1.69,5.22,5.22,0,0,0-.7,2.12,4.9,4.9,0,0,0,.23,2,5.62,5.62,0,0,0,1,1.8,6.19,6.19,0,0,0,1.69,1.4,6.36,6.36,0,0,0,2.09.76,5.38,5.38,0,0,0,2.08,0,4.94,4.94,0,0,0,1.86-.85,5.23,5.23,0,0,0,1.46-1.67,5.4,5.4,0,0,0,.71-2.12,4.92,4.92,0,0,0-.21-2.05,5.39,5.39,0,0,0-1-1.81A6.36,6.36,0,0,0,255,198.35Z"/><circle class="cls-7" cx="141.88" cy="141.94" r="139.63"/><path class="cls-8" d="M141.88,31.81A109.47,109.47,0,1,0,251.35,141.28,109.47,109.47,0,0,0,141.88,31.81ZM246.49,136.66H235.7v3.42H216.09v-7.28h-2.38v7.28H190.63v-7.28h-2.38v7.28H165.16v-7.28h-2.38v7.28H143.28V120.47h6.1V118.1h-6.1V95h6.1V92.63h-6.1V69.54h6.1V67.16h-6.1V48.1h2.45V36.64a104.69,104.69,0,0,1,100.76,100ZM67.83,67.23a104.36,104.36,0,0,1,70-30.59V48.1h3V67.16h-7v2.38h7V92.63h-7V95h7V118.1h-7v2.38h7v19.62H121.16v-6.77h-2.38v6.77H95.69v-6.77H93.32v6.77H70.23v-6.77H67.85v6.77H48.25v-3.14h-11A104.36,104.36,0,0,1,67.83,67.23ZM37.22,144.71h11v-2.25h19.6v6h2.38v-6H93.32v6h2.38v-6h23.09v6h2.38v-6H140.9V162.1h-6.5v2.38h6.5v23.09h-6.5v2.38h6.5V213h-6.5v2.38h6.5v19.36h-3v11.14A104.69,104.69,0,0,1,37.22,144.71Zm178.7,70.61a104.36,104.36,0,0,1-70.19,30.59V234.76h-2.45V215.41h6.62V213h-6.62V189.94h6.62v-2.38h-6.62V164.48h6.62V162.1h-6.62V142.46h19.51V148h2.38v-5.54h23.09V148h2.38v-5.54h23.09V148h2.38v-5.54H235.7v2h10.84A104.37,104.37,0,0,1,215.92,215.32Z"/><path class="cls-3" d="M141.88,31.81v-.25A109.72,109.72,0,1,0,251.6,141.28,109.72,109.72,0,0,0,141.88,31.56v.5A109.22,109.22,0,1,1,32.66,141.28,109.22,109.22,0,0,1,141.88,32.06ZM246.49,136.66v-.25h-11v3.42H216.34v-7.28h-2.88v7.28H190.88v-7.28H188v7.28H165.41v-7.28h-2.88v7.28h-19V120.72h6.11v-2.88h-6.11V95.26h6.11V92.38h-6.11V69.79h6.11V66.91h-6.11V48.35H146V36.64h-.25v.25a104.44,104.44,0,0,1,100.52,99.79h.25v0h.25a104.94,104.94,0,0,0-101-100.27h-.26V47.85H143V67.41h6.1v1.88H143V92.88h6.1v1.88H143v23.59h6.1v1.88H143v20.12h20v-7.28h1.88v7.28H188.5v-7.28h1.88v7.28H214v-7.28h1.88v7.28H236v-3.42h10.8v-.26ZM67.83,67.23l.18.18a104.11,104.11,0,0,1,69.86-30.51v-.25h-.25V48.35h3V66.91h-7v2.88h7V92.38h-7v2.88h7v22.59h-7v2.88h7v19.12H121.41v-6.77h-2.88v6.77H95.94v-6.77H93.07v6.77H70.48v-6.77H67.6v6.77H48.5V136.7H37.26v.25h.25A104.11,104.11,0,0,1,68,67.41l-.18-.18-.18-.18A104.61,104.61,0,0,0,37,136.94v.26H48v3.14H68.1v-6.77H70v6.77H93.57v-6.77h1.88v6.77H119v-6.77h1.88v6.77h20.25V120.22h-7v-1.88h7V94.76h-7V92.88h7V69.29h-7V67.41h7V47.85h-3V36.38h-.26A104.61,104.61,0,0,0,67.65,67.05ZM37.22,144.71V145H48.5v-2.25H67.6v6h2.88v-6H93.07v6h2.88v-6h22.59v6h2.88v-6h19.25v19.14h-6.5v2.88h6.5v22.59h-6.5v2.88h6.5v22.59h-6.5v2.87h6.5v18.86h-3v11.39h.25v-.25a104.44,104.44,0,0,1-100.39-101h-.25v0H37A104.94,104.94,0,0,0,137.85,246.16h.26V235h3V215.16h-6.5v-1.88h6.5V189.69h-6.5v-1.88h6.5V164.23h-6.5v-1.88h6.5V142.21H120.91v6H119v-6H95.44v6H93.57v-6H70v6H68.1v-6H48v2.25H37v.26Zm178.7,70.61-.18-.18a104.11,104.11,0,0,1-70,30.52v.25H146v-11.4h-2.45V215.66h6.62v-2.87h-6.62V190.19h6.62v-2.88h-6.62V164.73h6.62v-2.88h-6.62V142.71h19v5.54h2.88v-5.54H188v5.54h2.88v-5.54h22.59v5.54h2.88v-5.54h19.11v2h11.09v-.25h-.25a104.12,104.12,0,0,1-30.55,70.73l.18.18.18.18a104.62,104.62,0,0,0,30.69-71.06v-.26H236v-2H215.84v5.54H214v-5.54H190.38v5.54H188.5v-5.54H164.91v5.54H163v-5.54H143v20.14h6.62v1.88H143v23.59h6.62v1.88H143v23.59h6.62v1.88H143V235h2.45v11.16h.26A104.61,104.61,0,0,0,216.1,215.5Z"/><path id="path2384" class="cls-3" d="M194.37,170.41l-.66,1h-5.16l-.94-1h-21.1l-.84,1v5.25l.38.84c.18.4.22,1.12.66,1.13l9.1.09.28.47,9.38.09a2.35,2.35,0,0,1,2.06,1.78l.38,2.16a3.33,3.33,0,0,0,2.91,2.44l6.1.28a2.79,2.79,0,0,1,2.53,1.59l3.94,14.07L216.22,200l-5.16-11.82,1.5-.09-1.41-3.1c-1.29-2.85,1.09-5,3.94-4.78a.94.94,0,0,0,.56-1.69c-.44-.41-1.28-.41-2.16-.56-1.17-.2-2.52,0-2.91-2s.53-2.95,2.16-3.61c.4-.16,1-.47.56-.84s-.91.07-1.36.23a1.89,1.89,0,0,1-2.25-.38l-.89-.94Zm-.12,14.87h-3c-3.44,0-3.38-5.44,0-5.44h3C197.85,179.84,197.39,185.28,194.25,185.28Zm0-.16c2.85.07,3.43-5.12,0-5.11A3.82,3.82,0,0,1,194.25,185.11Z"/><polygon class="cls-3" points="111.37 100.38 129.99 86.84 106.97 86.84 99.89 65.02 92.81 86.84 69.79 86.84 88.41 100.38 81.33 122.22 99.89 108.72 118.45 122.22 111.37 100.38"/></g></g></svg>