<svg xmlns="http://www.w3.org/2000/svg" viewBox="0 0 465.61 134.94"><defs><style>.cls-1{fill:#00a75b;opacity:0.88;}.cls-2{opacity:0.8;}</style></defs><title>SBSLogo</title><g id="Layer_2" data-name="Layer 2"><g id="Layer_1-2" data-name="Layer 1"><path class="cls-1" d="M420.93,71c-.54-1.08-1.89-1.48-2.57,0-3.38,7.29-9,15.39-18.09,18.77,4.86-3.24,5.81-8.91,6.08-14.18.41-9.32-2.16-19.85-1.22-32.27.54-.94.95-1.76,1.49-2.57,1.76-3.11,2.43-4.59,1.08-5.94s-4.32-.67-7.29,2-4.18,5.13-4.86,10.4A267.53,267.53,0,0,1,380,70.46c-.13-1.08-.13-2.16-.27-3.24-.14-2.16-1.22-2.7-2.84-1.35-3,2.43-4.17,7-3.8,11.56-4.54,7.32-10.31,13.47-14.83,13.69s-4.46-5.53-1.08-13.1c3.24-7.16,10-17.28,13-23.36,3.24-6.75,2.16-12.56.13-15q-1.42-1.82-3.24.81c-1.48,2.16-3.11,5-4.86,8.24.27-5.27-2.43-9.72-8.24-9.72-6.75,0-17.42,6.08-28.35,22a43.84,43.84,0,0,0-5.4,10.59c-.53-.46-1.08-.15-1.48.75C314.27,82.48,307.38,91.25,302,91c-4.19-.27-5.94-5.67-3.38-13.1C301,71,307.52,61.68,314,54.53c4.05-4.46.67-10.8-1.89-13.77-1.21-1.35-2.3-.81-4.05.41-5.27,3.65-10.13,5.81-14.85,6.35,3-8.91,4.05-17.28-.14-17C287.4,30.9,275,49.12,285.64,53c-5.54,15.8-13.91,30-22.28,35.24.13-1.35.13-2.57.27-3.78.54-9.72-2.16-15-8.78-16.75C262,53.58,271.6,38.32,277,29.14c5.81-10,6.48-15.66,4.59-20.25-.68-1.62-2-1.89-3.24-.13-9.32,13.82-24.64,38.77-35.91,62.9a2.57,2.57,0,0,0-.54.7c-4.73,9.32-12.15,18.5-17.69,18.77-4.59.27-4.46-5.53-1.08-13.1,3.24-7.16,10-17.28,13-23.36,3.24-6.75,2.16-12.56.13-15q-1.42-1.82-3.24.81c-1.48,2.16-3.11,5-4.86,8.24.27-5.27-2.43-9.72-8.24-9.72-6.75,0-17.42,6.08-28.35,22a44.74,44.74,0,0,0-4.86,9.13,1.59,1.59,0,0,0-.8.86c-3.38,7.29-9,15.39-18.09,18.77,4.86-3.24,5.81-8.91,6.08-14.18.41-9.32-2.16-19.85-1.22-32.27.54-.94.95-1.76,1.49-2.57,1.76-3.11,2.43-4.59,1.08-5.94s-4.32-.67-7.29,2-4.18,5.13-4.86,10.4a267.53,267.53,0,0,1-15.53,23.22c-.13-1.08-.13-2.16-.27-3.24-.14-2.16-1.22-2.7-2.84-1.35-2.83,2.33-4.06,6.6-3.84,11-3.43,5.4-8.26,10.45-14.92,12.94,4.86-3.24,5.81-8.91,6.08-14.18.41-9.32-2.16-19.85-1.22-32.27.54-.94.94-1.76,1.49-2.57,1.76-3.11,2.43-4.59,1.08-5.94s-4.32-.67-7.29,2-4.18,5.13-4.86,10.4A267.53,267.53,0,0,1,105.4,70.46c-.13-1.08-.13-2.16-.27-3.24-.14-2.16-1.22-2.7-2.84-1.35-3,2.43-4.17,7-3.8,11.56C94,84.74,88.18,90.9,83.67,91.12S79.21,85.58,82.59,78c3.24-7.16,10-17.28,13-23.36,3.24-6.75,2.16-12.56.13-15q-1.42-1.82-3.24.81a95.58,95.58,0,0,0-4.86,8.24c.27-5.27-2.43-9.72-8.24-9.72C72.59,39,61.93,45.07,51,61a44.74,44.74,0,0,0-4.86,9.13,1.59,1.59,0,0,0-.8.86c-3.38,7.29-9,15.39-18.09,18.77,4.86-3.24,5.81-8.91,6.08-14.18.41-9.32-2.16-19.85-1.22-32.27.54-.94.94-1.76,1.49-2.57,1.76-3.11,2.43-4.59,1.08-5.94s-4.32-.67-7.29,2S23.18,42,22.5,47.23A267.53,267.53,0,0,1,7,70.46c-.13-1.08-.13-2.16-.27-3.24-.14-2.16-1.22-2.7-2.84-1.35-4.59,3.78-5,12.69-1.76,18.77C6.71,93,14.27,95,22.1,94.77A28.42,28.42,0,0,0,44,83.11c.6,6.75,4.42,11.39,10.94,11.39S67.46,89.5,71.78,84c0,6.35,3.78,10.67,11.07,11.07,6.25.34,13.26-4.87,17.41-11,.09.19.17.38.27.56,4.59,8.37,12.15,10.4,20,10.13A28.42,28.42,0,0,0,142.1,83.48q.26.59.56,1.16c4.59,8.37,12.15,10.4,20,10.13a28.42,28.42,0,0,0,21.86-11.66c.6,6.75,4.42,11.39,10.94,11.39S208,89.5,212.33,84c0,6.35,3.78,10.67,11.07,11.07,3.62.2,7.5-1.48,10.94-4.1a104.54,104.54,0,0,0-5.81,21.92c-1.49,11.48,2,16.2,5.54,19.31,3.78,3.38,8,4.59,13.1-1.76,6.62-8.24,13.1-23.9,15.53-37.94,12.15-5,22.41-22,28.22-38.62a31.6,31.6,0,0,0,16.07-5c-5.81,6.48-13.91,16.47-16.74,25.52-3.38,10.8.67,20.12,10.94,20.39,6.53.12,13.59-4.26,17.49-10.83.83,6.3,4.6,10.56,10.86,10.56,6.48,0,12.56-5,16.88-10.53,0,6.35,3.78,10.67,11.07,11.07,6.25.34,13.26-4.87,17.41-11,.09.19.17.38.27.56,4.59,8.37,12.15,10.4,20,10.13A28.46,28.46,0,0,0,419,79.91C421.33,75.73,421.47,72.21,420.93,71ZM18.59,89.77c-4.46,1.35-8.37-4.19-10.4-12a237.41,237.41,0,0,0,14-21.87C22.78,66.68,24.8,87.88,18.59,89.77Zm37.8.27C51.12,89.9,52.88,78,60,66.41c7.43-12,17.28-20.79,21.6-20.39,3.92.41,2.7,8.78-5.81,23.63C68.95,81.53,61.93,90.17,56.39,90ZM117,89.77c-4.46,1.35-8.37-4.19-10.4-12a237.41,237.41,0,0,0,14-21.87C121.2,66.68,123.22,87.88,117,89.77Zm42.12,0c-4.46,1.35-8.37-4.19-10.4-12a237.11,237.11,0,0,0,14-21.87C163.32,66.68,165.35,87.88,159.13,89.77Zm37.8.27c-5.27-.13-3.51-12,3.65-23.63,7.43-12,17.28-20.79,21.6-20.39,3.92.41,2.7,8.78-5.81,23.63C209.49,81.53,202.47,90.17,196.94,90Zm39,37.27c-3.11-3.91,1.76-20.66,9.32-38.62,1.48,3.24,4.32,4.86,8.24,5.27C249.05,112.45,238.92,131.09,236,127.3Zm19.58-46.85a65.45,65.45,0,0,1-1.21,9.86c-2.7-.27-3.78-3.51-3.78-7.83,0-3.24,1.35-10.26,2.83-10.8C254.45,71.27,255.8,75.45,255.53,80.45ZM331,90c-5.27-.13-3.51-12,3.65-23.63,7.43-12,17.28-20.79,21.6-20.39,3.92.41,2.7,8.78-5.81,23.63C343.56,81.53,336.54,90.17,331,90Zm60.62-.27c-4.46,1.35-8.37-4.19-10.4-12a237.11,237.11,0,0,0,14-21.87C395.81,66.68,397.84,87.88,391.63,89.77Z"/><path class="cls-1" d="M448.51,0c1.19,3.2,2.37,6.14,3.37,9.14,1.51,4.53.43,8.78-2.23,12.66a49.57,49.57,0,0,1-4.47,5.32,14.69,14.69,0,0,0-3.31,4.5c-1,2.5.57,4.57,3.08,3.93a11.31,11.31,0,0,0,3.79-1.9,20.32,20.32,0,0,1,6.91-3.7c3.27-.83,6.35-.18,9.38.93.92.34.54,1.06.4,1.64a27.46,27.46,0,0,1-4.92,10.2A33.36,33.36,0,0,1,443,54.84c-2.88.86-5.84,1.43-8.69,2.38-2.62.87-5.16,2.06-7.73,3.12A2.77,2.77,0,0,0,425,62.15c-.73,2.12-1.53,4.21-2.31,6.31-.08.23-.17.46-.26.69-.27.61-.75,1.09-1.32.73-.31-.2-.34-.9-.43-1.39,0-.17.14-.39.22-.58.86-2.07,1.68-4.15,2.6-6.2a3.5,3.5,0,0,0,.1-2.7,42.19,42.19,0,0,0-5.21-10.09A48.73,48.73,0,0,1,412.54,38a32.13,32.13,0,0,1,.6-23.84,8.65,8.65,0,0,1,.49-.93c1.2-2.07,1.18-2,3.22-1.15,5,2.15,7.6,6.13,8.54,11.57a16.77,16.77,0,0,0,1.19,4.11,4.37,4.37,0,0,0,1.92,1.92c1.25.63,2.72-.24,3.4-1.82a10.82,10.82,0,0,0,.67-5.43,25.44,25.44,0,0,1,1.24-10.69,11.39,11.39,0,0,1,4.43-6.16c2.12-1.38,4.38-2.52,6.6-3.74C446,1.24,447.14.69,448.51,0Z"/><g class="cls-2"><path d="M60.25,99.28a6,6,0,0,1,2.54.54,6.59,6.59,0,0,1,2,1.43,6.83,6.83,0,0,1,1.36,2.06,6.13,6.13,0,0,1,.5,2.43,6.49,6.49,0,0,1-.81,3.19,6.27,6.27,0,0,1-2.25,2.35,6.78,6.78,0,0,1,2.8,2.56,7,7,0,0,1-1,8.58,7.19,7.19,0,0,1-2.19,1.49,6.47,6.47,0,0,1-2.66.55H50.69V99.28ZM65,105.7a4.52,4.52,0,0,0-.38-1.85,5.16,5.16,0,0,0-1-1.51,4.45,4.45,0,0,0-1.51-1,4.77,4.77,0,0,0-1.84-.36H52.37v9.6h7.88a4.55,4.55,0,0,0,1.84-.38,4.66,4.66,0,0,0,1.51-1,5,5,0,0,0,1-1.55A4.78,4.78,0,0,0,65,105.7Zm-4.44,17.09a5.18,5.18,0,0,0,2-.4,5,5,0,0,0,1.66-1.13,5.36,5.36,0,0,0,1.11-1.68,5.28,5.28,0,0,0,.4-2.07,5.18,5.18,0,0,0-.4-2,5.37,5.37,0,0,0-1.11-1.68,5.26,5.26,0,0,0-1.66-1.15,5,5,0,0,0-2-.42H52.37v10.55Z"/><path d="M82.51,124.74a10.14,10.14,0,0,1-3.94-.76,10.33,10.33,0,0,1-3.21-2.08,9.87,9.87,0,0,1-2.18-3.1,9,9,0,0,1-.8-3.77V99.28h1.68V115a7.58,7.58,0,0,0,.65,3.14,7.94,7.94,0,0,0,1.8,2.54,8.56,8.56,0,0,0,2.7,1.72,8.68,8.68,0,0,0,3.31.63,8.44,8.44,0,0,0,3.25-.63,8.62,8.62,0,0,0,2.68-1.72,8,8,0,0,0,1.8-2.54,7.59,7.59,0,0,0,.65-3.14V99.28h1.68V115a9,9,0,0,1-.8,3.77,10.11,10.11,0,0,1-9.25,5.95Z"/><path d="M116.54,117.59a6.18,6.18,0,0,1-.75,3.06,6.94,6.94,0,0,1-2,2.26,9,9,0,0,1-3,1.38,13.83,13.83,0,0,1-3.61.46,15.37,15.37,0,0,1-1.78-.11q-1-.12-2-.31t-2-.48q-1-.29-1.93-.59l.67-1.41,1,.23,1.11.27,1.38.31q.73.15,1.44.25a9.71,9.71,0,0,0,1.29.1H108a8.61,8.61,0,0,0,2.57-.38,7.07,7.07,0,0,0,2.17-1.09,5.25,5.25,0,0,0,1.5-1.76,5.12,5.12,0,0,0,.56-2.43,3.53,3.53,0,0,0-.29-1.32,5.21,5.21,0,0,0-.63-1.17,5,5,0,0,0-1.28-1.22,6.25,6.25,0,0,0-1.47-.71,8.21,8.21,0,0,0-1.57-.34l-1.64-.17q-1.34-.08-2.66-.25a6.6,6.6,0,0,1-2.58-.94h0a6.24,6.24,0,0,1-2.22-2.18,5.89,5.89,0,0,1-.88-3.17,5.75,5.75,0,0,1,1.82-4.26,9.44,9.44,0,0,1,4.91-2.39q.42-.08,1.3-.15t2.06-.08a10,10,0,0,1,1.4.11q.78.11,1.61.3t1.61.41a14.46,14.46,0,0,1,1.43.49l-.65,1.56a17.91,17.91,0,0,0-1.72-.55q-.8-.21-1.55-.36a12.19,12.19,0,0,0-1.47-.21q-.73-.06-1.57-.06a11.37,11.37,0,0,0-2.58.31,8.7,8.7,0,0,0-2.41.94,5.76,5.76,0,0,0-1.8,1.61,3.92,3.92,0,0,0-.71,2.36,4.38,4.38,0,0,0,.59,2,4.47,4.47,0,0,0,1.48,1.69,5.93,5.93,0,0,0,2.24.86q1.13.17,2.32.25a21.13,21.13,0,0,1,2.82.36,7.86,7.86,0,0,1,2.78,1.13,6.47,6.47,0,0,1,2.2,2.37A6.19,6.19,0,0,1,116.54,117.59Z"/><path d="M123.46,99.28v25.2H121.7V99.28Z"/><path d="M149.35,99.28V126L132.06,103.1v21.38h-1.68V98.09L147.67,121V99.28Z"/><path d="M155.47,124.48V99.28h14.38V101h-12.7v7.84h8.57v1.68h-8.57v12.31h13.58v1.68Z"/><path d="M192,117.59a6.18,6.18,0,0,1-.75,3.06,6.94,6.94,0,0,1-2,2.26,8.94,8.94,0,0,1-3,1.38,13.84,13.84,0,0,1-3.61.46,15.36,15.36,0,0,1-1.78-.11q-1-.12-2-.31t-2-.48q-1-.29-1.93-.59l.67-1.41,1,.23,1.11.27,1.38.31q.73.15,1.44.25a9.7,9.7,0,0,0,1.29.1h1.61a8.6,8.6,0,0,0,2.57-.38,7.06,7.06,0,0,0,2.17-1.09,5.23,5.23,0,0,0,1.5-1.76,5.11,5.11,0,0,0,.56-2.43A3.53,3.53,0,0,0,190,116a5.21,5.21,0,0,0-.63-1.17,5,5,0,0,0-1.28-1.22,6.27,6.27,0,0,0-1.47-.71,8.21,8.21,0,0,0-1.57-.34l-1.64-.17q-1.34-.08-2.66-.25a6.59,6.59,0,0,1-2.58-.94h0A6.24,6.24,0,0,1,176,109a5.88,5.88,0,0,1-.88-3.17,5.75,5.75,0,0,1,1.82-4.26,9.44,9.44,0,0,1,4.91-2.39q.42-.08,1.3-.15t2.06-.08a10,10,0,0,1,1.4.11q.78.11,1.61.3t1.61.41a14.46,14.46,0,0,1,1.43.49l-.65,1.56a17.91,17.91,0,0,0-1.72-.55q-.8-.21-1.55-.36a12.19,12.19,0,0,0-1.47-.21q-.73-.06-1.57-.06a11.37,11.37,0,0,0-2.58.31,8.69,8.69,0,0,0-2.41.94,5.75,5.75,0,0,0-1.8,1.61,3.92,3.92,0,0,0-.71,2.36,4.38,4.38,0,0,0,.59,2,4.47,4.47,0,0,0,1.48,1.69,5.93,5.93,0,0,0,2.24.86q1.13.17,2.32.25a21.14,21.14,0,0,1,2.82.36A7.85,7.85,0,0,1,189,112.2a6.47,6.47,0,0,1,2.2,2.37A6.19,6.19,0,0,1,192,117.59Z"/><path d="M215.5,117.59a6.18,6.18,0,0,1-.75,3.06,6.94,6.94,0,0,1-2,2.26,8.94,8.94,0,0,1-3,1.38,13.84,13.84,0,0,1-3.61.46,15.36,15.36,0,0,1-1.78-.11q-1-.12-2-.31t-2-.48q-1-.29-1.93-.59l.67-1.41,1,.23,1.11.27,1.38.31q.73.15,1.44.25a9.7,9.7,0,0,0,1.29.1H207a8.6,8.6,0,0,0,2.57-.38,7.06,7.06,0,0,0,2.17-1.09,5.23,5.23,0,0,0,1.5-1.76,5.11,5.11,0,0,0,.56-2.43,3.53,3.53,0,0,0-.29-1.32,5.21,5.21,0,0,0-.63-1.17,5,5,0,0,0-1.28-1.22,6.27,6.27,0,0,0-1.47-.71,8.21,8.21,0,0,0-1.57-.34l-1.64-.17q-1.34-.08-2.66-.25a6.59,6.59,0,0,1-2.58-.94h0a6.24,6.24,0,0,1-2.22-2.18,5.88,5.88,0,0,1-.88-3.17,5.75,5.75,0,0,1,1.82-4.26,9.44,9.44,0,0,1,4.91-2.39q.42-.08,1.3-.15t2.06-.08a10,10,0,0,1,1.4.11q.78.11,1.61.3t1.61.41a14.46,14.46,0,0,1,1.43.49l-.65,1.56a17.91,17.91,0,0,0-1.72-.55q-.8-.21-1.55-.36a12.19,12.19,0,0,0-1.47-.21q-.73-.06-1.57-.06a11.37,11.37,0,0,0-2.58.31,8.69,8.69,0,0,0-2.41.94,5.75,5.75,0,0,0-1.8,1.61,3.92,3.92,0,0,0-.71,2.36,4.38,4.38,0,0,0,.59,2,4.47,4.47,0,0,0,1.48,1.69,5.93,5.93,0,0,0,2.24.86q1.13.17,2.32.25a21.14,21.14,0,0,1,2.82.36,7.85,7.85,0,0,1,2.78,1.13,6.47,6.47,0,0,1,2.2,2.37A6.19,6.19,0,0,1,215.5,117.59Z"/></g><g class="cls-2"><path d="M281.92,117.59a6.18,6.18,0,0,1-.75,3.06,6.94,6.94,0,0,1-2,2.26,8.94,8.94,0,0,1-3,1.38,13.84,13.84,0,0,1-3.61.46,15.39,15.39,0,0,1-1.78-.11q-1-.12-2-.31t-2-.48q-1-.29-1.93-.59l.67-1.41,1,.23,1.11.27,1.38.31q.73.15,1.44.25a9.7,9.7,0,0,0,1.29.1h1.61a8.61,8.61,0,0,0,2.57-.38,7.07,7.07,0,0,0,2.17-1.09,5.23,5.23,0,0,0,1.5-1.76,5.12,5.12,0,0,0,.56-2.43,3.54,3.54,0,0,0-.29-1.32,5.21,5.21,0,0,0-.63-1.17,5,5,0,0,0-1.28-1.22,6.27,6.27,0,0,0-1.47-.71,8.22,8.22,0,0,0-1.57-.34l-1.64-.17q-1.34-.08-2.66-.25a6.59,6.59,0,0,1-2.58-.94h0a6.25,6.25,0,0,1-2.22-2.18,5.89,5.89,0,0,1-.88-3.17,5.75,5.75,0,0,1,1.82-4.26,9.44,9.44,0,0,1,4.91-2.39q.42-.08,1.3-.15t2.06-.08a10,10,0,0,1,1.4.11q.78.11,1.61.3t1.61.41a14.53,14.53,0,0,1,1.43.49l-.65,1.56a17.83,17.83,0,0,0-1.72-.55q-.8-.21-1.55-.36a12.19,12.19,0,0,0-1.47-.21q-.73-.06-1.57-.06a11.37,11.37,0,0,0-2.58.31,8.69,8.69,0,0,0-2.41.94,5.75,5.75,0,0,0-1.8,1.61,3.92,3.92,0,0,0-.71,2.36,4.38,4.38,0,0,0,.59,2,4.47,4.47,0,0,0,1.48,1.69,5.93,5.93,0,0,0,2.24.86q1.13.17,2.32.25a21.11,21.11,0,0,1,2.82.36,7.86,7.86,0,0,1,2.78,1.13,6.46,6.46,0,0,1,2.2,2.37A6.18,6.18,0,0,1,281.92,117.59Z"/><path d="M287.24,124.48V99.28h14.38V101h-12.7v7.84h8.57v1.68h-8.57v12.31h13.58v1.68Z"/><path d="M307.77,114.65v9.83h-1.68V99.28h7.07a7,7,0,0,1,3,.65,8.26,8.26,0,0,1,2.43,1.7,7.61,7.61,0,0,1,1.61,2.43,7.39,7.39,0,0,1,.57,2.87,7.72,7.72,0,0,1-1.3,4.34,7.11,7.11,0,0,1-3.63,2.81q.92,1.22,2,2.56l2.06,2.68,2,2.66,1.93,2.5h-2.14l-7.57-9.83Zm0-13.69v12h5.39a5.65,5.65,0,0,0,2.33-.48,6,6,0,0,0,1.87-1.3,6.08,6.08,0,0,0,1.26-1.91,6.06,6.06,0,0,0,0-4.63,6,6,0,0,0-3.14-3.21,5.67,5.67,0,0,0-2.33-.48Z"/><path d="M327.39,99.12l9.52,22.18q.46-1,1.09-2.52t1.4-3.25q.76-1.76,1.57-3.65t1.61-3.73l3.86-9,1.49.69-11,25.74L325.82,99.77Z"/><path d="M353.62,99.28v25.2h-1.76V99.28Z"/><path d="M379.09,121.42a14.68,14.68,0,0,1-4.05,2.43,12.39,12.39,0,0,1-4.59.86,12.23,12.23,0,0,1-5-1,13.32,13.32,0,0,1-4.07-2.77,12.88,12.88,0,0,1,0-18.16,13.06,13.06,0,0,1,4.07-2.75,12.44,12.44,0,0,1,5-1,12.18,12.18,0,0,1,4.07.71,15.61,15.61,0,0,1,3.88,2l-1.34,1a11.33,11.33,0,0,0-6.62-2.1,10.85,10.85,0,0,0-4.36.88,11.33,11.33,0,0,0-3.54,2.39,11,11,0,0,0-2.37,3.55,11.44,11.44,0,0,0,0,8.7,11,11,0,0,0,2.37,3.55,11.59,11.59,0,0,0,3.54,2.4,10.64,10.64,0,0,0,4.36.9,10.38,10.38,0,0,0,4-.78A13.57,13.57,0,0,0,378,120Z"/><path d="M382.76,124.48V99.28h14.38V101h-12.7v7.84H393v1.68h-8.57v12.31H398v1.68Z"/><path d="M419.32,117.59a6.18,6.18,0,0,1-.75,3.06,6.94,6.94,0,0,1-2,2.26,8.94,8.94,0,0,1-3,1.38,13.84,13.84,0,0,1-3.61.46,15.36,15.36,0,0,1-1.78-.11q-1-.12-2-.31t-2-.48q-1-.29-1.93-.59l.67-1.41,1,.23,1.11.27,1.38.31q.73.15,1.44.25a9.7,9.7,0,0,0,1.29.1h1.61a8.6,8.6,0,0,0,2.57-.38,7.06,7.06,0,0,0,2.17-1.09,5.23,5.23,0,0,0,1.5-1.76,5.11,5.11,0,0,0,.56-2.43,3.53,3.53,0,0,0-.29-1.32,5.21,5.21,0,0,0-.63-1.17,5,5,0,0,0-1.28-1.22,6.27,6.27,0,0,0-1.47-.71,8.21,8.21,0,0,0-1.57-.34l-1.64-.17q-1.34-.08-2.66-.25a6.59,6.59,0,0,1-2.58-.94h0a6.24,6.24,0,0,1-2.22-2.18,5.88,5.88,0,0,1-.88-3.17,5.75,5.75,0,0,1,1.82-4.26,9.44,9.44,0,0,1,4.91-2.39q.42-.08,1.3-.15t2.06-.08a10,10,0,0,1,1.4.11q.78.11,1.61.3t1.61.41a14.46,14.46,0,0,1,1.43.49l-.65,1.56a17.91,17.91,0,0,0-1.72-.55q-.8-.21-1.55-.36a12.19,12.19,0,0,0-1.47-.21q-.73-.06-1.57-.06A11.37,11.37,0,0,0,409,101a8.69,8.69,0,0,0-2.41.94,5.75,5.75,0,0,0-1.8,1.61,3.92,3.92,0,0,0-.71,2.36,4.38,4.38,0,0,0,.59,2,4.47,4.47,0,0,0,1.48,1.69,5.93,5.93,0,0,0,2.24.86q1.13.17,2.32.25a21.14,21.14,0,0,1,2.82.36,7.85,7.85,0,0,1,2.78,1.13,6.47,6.47,0,0,1,2.2,2.37A6.19,6.19,0,0,1,419.32,117.59Z"/></g></g></g></svg>