<?xml version="1.0" standalone="no"?>
<!DOCTYPE svg PUBLIC "-//W3C//DTD SVG 20010904//EN"
 "http://www.w3.org/TR/2001/REC-SVG-20010904/DTD/svg10.dtd">
<svg version="1.0" xmlns="http://www.w3.org/2000/svg"
 width="260.000000pt" height="260.000000pt" viewBox="0 0 260.000000 260.000000"
 preserveAspectRatio="xMidYMid meet">
<metadata>
Created by potrace 1.11, written by Peter Selinger 2001-2013
</metadata>
<g transform="translate(0.000000,260.000000) scale(0.100000,-0.100000)"
fill="#000000" stroke="none">
<path d="M0 2233 l0 -368 35 104 c53 157 114 261 151 261 9 0 53 -17 98 -39
231 -109 347 -270 405 -561 36 -179 89 -275 167 -300 63 -21 134 34 166 129 7
23 12 119 13 266 2 194 5 246 24 333 56 263 131 381 321 501 l65 41 -722 0
-723 0 0 -367z"/>
<path d="M1926 2538 c14 -35 41 -112 61 -173 33 -99 37 -121 37 -220 1 -88 -4
-125 -22 -185 -47 -150 -146 -300 -322 -485 -136 -143 -190 -232 -190 -314 0
-42 5 -56 29 -83 27 -30 34 -33 88 -33 71 0 154 37 258 115 93 70 248 145 342
166 109 24 233 14 371 -30 l22 -7 0 655 0 656 -349 0 -350 0 25 -62z"/>
<path d="M1 538 l-1 -538 275 0 c151 0 275 3 275 8 0 24 -125 248 -219 390
-160 245 -226 375 -297 582 l-33 95 0 -537z"/>
<path d="M2552 902 c-105 -216 -315 -449 -538 -598 -174 -116 -317 -176 -609
-254 l-180 -49 688 0 687 -1 0 495 c0 272 -1 495 -2 495 -2 -1 -22 -40 -46
-88z"/>
</g>
</svg>
